<?xml version="1.0" standalone="no"?>
<!DOCTYPE svg PUBLIC "-//W3C//DTD SVG 20010904//EN"
 "http://www.w3.org/TR/2001/REC-SVG-20010904/DTD/svg10.dtd">
<svg version="1.0" xmlns="http://www.w3.org/2000/svg"
 width="512.000000pt" height="512.000000pt" viewBox="0 0 512.000000 512.000000"
 preserveAspectRatio="xMidYMid meet">
<metadata>
Created by potrace 1.16, written by Peter Selinger 2001-2019
</metadata>
<g transform="translate(0.000000,512.000000) scale(0.100000,-0.100000)"
fill="#000000" stroke="none">
<path d="M4102 1433 l-264 -3 -76 -74 c-253 -244 -538 -395 -882 -468 -89 -18
-137 -22 -315 -22 -184 -1 -224 2 -325 23 -187 39 -365 106 -535 201 -40 22
-196 128 -205 139 -3 4 -21 19 -40 35 -19 15 -67 59 -106 97 l-72 69 -265 0
-265 0 16 -32 c9 -18 31 -53 50 -78 18 -25 43 -58 55 -75 54 -74 193 -218 294
-305 138 -119 251 -196 418 -281 318 -163 608 -232 975 -233 273 0 492 37 735
125 120 44 350 160 458 233 125 84 290 228 393 343 98 110 204 250 204 270 0
7 4 13 8 13 5 0 9 7 9 15 0 8 -1 14 -1 13 -1 -2 -120 -4 -264 -5z"/>
</g>
</svg>
